# xmcd
#
# Track frame offsets:
# 182
# 17282
# 28045
# 36970
# 52995
# 62452
# 82475
# 102610
# 112192
# 129862
# 146157
# 166640
# 175665
#
# Disc length: 2426 seconds
#
#
# Revision: 0
# Processed by: cddbd v1.5.2PL0 Copyright (c) Steve Scherf et al.
# Submitted via: FreeRIP 2.951 
#
DISCID=a909780d
DTITLE=Gaby Cole - Just for a while
DYEAR=2000
DGENRE=Dream
TTITLE0=Summertime
TTITLE1=The man I love
TTITLE2=It's only a paper moon
TTITLE3=Mood indigo
TTITLE4=The lady is a tramp
TTITLE5=These foolish things
TTITLE6=Lover man
TTITLE7=A foggy day
TTITLE8=The girl from Ipanema
TTITLE9=I got rhythm
TTITLE10=My funny Valentine
TTITLE11=Lover come back to me
TTITLE12=All of me
EXTD=
EXTT0=
EXTT1=
EXTT2=
EXTT3=
EXTT4=
EXTT5=
EXTT6=
EXTT7=
EXTT8=
EXTT9=
EXTT10=
EXTT11=
EXTT12=
PLAYORDER=
